<mxfile host="65bd71144e">
    <diagram id="xS9zwS4-GGdNYPgURUnr" name="Page-1">
        <mxGraphModel dx="1393" dy="891" grid="1" gridSize="10" guides="1" tooltips="1" connect="1" arrows="1" fold="1" page="1" pageScale="1" pageWidth="1200" pageHeight="1920" math="0" shadow="0">
            <root>
                <mxCell id="0"/>
                <mxCell id="1" parent="0"/>
                <mxCell id="2" value="&lt;font style=&quot;font-size: 30px&quot;&gt;Website&lt;/font&gt;" style="ellipse;whiteSpace=wrap;html=1;aspect=fixed;" parent="1" vertex="1">
                    <mxGeometry x="495" y="430" width="190" height="190" as="geometry"/>
                </mxCell>
                <mxCell id="5" value="&lt;font style=&quot;font-size: 30px&quot;&gt;Admin&lt;/font&gt;" style="rounded=0;whiteSpace=wrap;html=1;" parent="1" vertex="1">
                    <mxGeometry x="917" y="480" width="280" height="110" as="geometry"/>
                </mxCell>
                <mxCell id="9" value="" style="endArrow=classic;html=1;entryX=0.024;entryY=0.571;entryDx=0;entryDy=0;entryPerimeter=0;endSize=24;startSize=20;exitX=1;exitY=0.25;exitDx=0;exitDy=0;strokeWidth=3;" parent="1" source="6" edge="1">
                    <mxGeometry relative="1" as="geometry">
                        <mxPoint x="299.99999999999994" y="509.9999999999999" as="sourcePoint"/>
                        <mxPoint x="497.2400000000002" y="511.82000000000005" as="targetPoint"/>
                    </mxGeometry>
                </mxCell>
                <mxCell id="10" value="&lt;font style=&quot;font-size: 25px;&quot;&gt;Login&lt;/font&gt;" style="edgeLabel;resizable=0;html=1;align=center;verticalAlign=bottom;fontStyle=0;fontSize=25;" parent="9" connectable="0" vertex="1">
                    <mxGeometry relative="1" as="geometry"/>
                </mxCell>
                <mxCell id="11" value="" style="endArrow=classic;html=1;entryX=0;entryY=0.75;entryDx=0;entryDy=0;endSize=24;startSize=20;rounded=1;exitX=0.974;exitY=0.684;exitDx=0;exitDy=0;exitPerimeter=0;strokeWidth=3;" parent="1" source="2" target="5" edge="1">
                    <mxGeometry relative="1" as="geometry">
                        <mxPoint x="705" y="560.09" as="sourcePoint"/>
                        <mxPoint x="905.0400000000002" y="560.0000000000001" as="targetPoint"/>
                    </mxGeometry>
                </mxCell>
                <mxCell id="12" value="&lt;span style=&quot;font-size: 25px&quot;&gt;Confirmation&lt;/span&gt;" style="edgeLabel;resizable=0;html=1;align=center;verticalAlign=top;fontStyle=0;fontSize=20;" parent="11" connectable="0" vertex="1">
                    <mxGeometry relative="1" as="geometry"/>
                </mxCell>
                <mxCell id="14" value="" style="endArrow=classic;html=1;entryX=1.003;entryY=0.661;entryDx=0;entryDy=0;entryPerimeter=0;endSize=24;startSize=20;exitX=0.009;exitY=0.646;exitDx=0;exitDy=0;exitPerimeter=0;strokeWidth=3;" parent="1" source="2" target="6" edge="1">
                    <mxGeometry relative="1" as="geometry">
                        <mxPoint x="462.76" y="560.1800000000001" as="sourcePoint"/>
                        <mxPoint x="300.0000000000002" y="560.0000000000002" as="targetPoint"/>
                    </mxGeometry>
                </mxCell>
                <mxCell id="15" value="&lt;font style=&quot;font-size: 25px;&quot;&gt;Confirmation&lt;/font&gt;" style="edgeLabel;resizable=0;html=1;align=center;verticalAlign=top;fontStyle=0;fontSize=25;" parent="14" connectable="0" vertex="1">
                    <mxGeometry relative="1" as="geometry"/>
                </mxCell>
                <mxCell id="16" value="" style="endArrow=classic;html=1;endSize=24;startSize=20;entryX=0.997;entryY=0.451;entryDx=0;entryDy=0;entryPerimeter=0;exitX=-0.001;exitY=0.353;exitDx=0;exitDy=0;exitPerimeter=0;strokeWidth=3;" parent="1" source="5" target="2" edge="1">
                    <mxGeometry relative="1" as="geometry">
                        <mxPoint x="905.0400000000002" y="520" as="sourcePoint"/>
                        <mxPoint x="705" y="520.0100000000002" as="targetPoint"/>
                    </mxGeometry>
                </mxCell>
                <mxCell id="17" value="&lt;font style=&quot;font-size: 25px&quot;&gt;Update&lt;/font&gt;" style="edgeLabel;resizable=0;html=1;align=center;verticalAlign=bottom;fontStyle=0;fontSize=20;" parent="16" connectable="0" vertex="1">
                    <mxGeometry relative="1" as="geometry"/>
                </mxCell>
                <mxCell id="6" value="&lt;font style=&quot;font-size: 30px&quot;&gt;Customet&lt;/font&gt;" style="rounded=0;whiteSpace=wrap;verticalAlign=middle;html=1;fontFamily=Times New Roman;fontSize=37;" parent="1" vertex="1">
                    <mxGeometry x="2" y="480" width="280" height="110" as="geometry"/>
                </mxCell>
            </root>
        </mxGraphModel>
    </diagram>
</mxfile>